<?xml version="1.0" encoding="UTF-8" standalone="no"?>
<!DOCTYPE svg PUBLIC "-//W3C//DTD SVG 1.1//EN" "http://www.w3.org/Graphics/SVG/1.1/DTD/svg11.dtd">
<svg width="100%" height="100%" viewBox="0 0 21000 29700" version="1.1" xmlns="http://www.w3.org/2000/svg" xmlns:xlink="http://www.w3.org/1999/xlink" xml:space="preserve" xmlns:serif="http://www.serif.com/" style="fill-rule:evenodd;clip-rule:evenodd;">
    <g id="F.SilkS">
        <path id="path2" d="M4996.62,5003.38C3808.1,4317.19 2265.44,4730.54 1579.24,5919.07C893.05,7107.59 1306.4,8650.25 2494.93,9336.44C2494.93,9336.44 2494.93,9336.44 2494.93,9336.44C4871.97,10708.8 7957.29,9882.12 9329.67,7505.07C9768.78,6744.52 10000,5881.6 10000,5003.38C10000,5442.49 9884.39,5873.95 9664.84,6254.23C8978.64,7442.75 7435.99,7856.11 6247.46,7169.91C5474.4,6723.58 4996.62,5896.04 4996.62,5003.38ZM4467.95,7586.86C4237.83,7985.44 3727.4,8122.21 3328.82,7892.09C2930.24,7661.97 2793.47,7151.54 3023.6,6752.96C3253.72,6354.38 3764.14,6217.61 4162.72,6447.74C4561.3,6677.86 4698.07,7188.28 4467.95,7586.86Z" style="fill:rgb(0,0,255);fill-rule:nonzero;stroke:rgb(0,0,255);stroke-width:1px;"/>
    </g>
    <g id="Edge.Cuts">
        <ellipse cx="5000" cy="5000" rx="5000" ry="5000" style="fill:none;stroke:black;stroke-width:35.28px;stroke-linecap:round;stroke-linejoin:round;stroke-miterlimit:1.5;"/>
    </g>
    <g id="F.Cu">
        <path d="M5000,0C7759.57,0 10000,2240.43 10000,5000C10000,7759.57 7759.57,10000 5000,10000C2240.43,10000 0,7759.57 0,5000C0,2240.43 2240.43,0 5000,0ZM4467.95,7586.86C4237.83,7985.44 3727.4,8122.21 3328.82,7892.09C2930.24,7661.97 2793.47,7151.54 3023.6,6752.96C3253.72,6354.38 3764.14,6217.61 4162.72,6447.74C4561.3,6677.86 4698.07,7188.28 4467.95,7586.86ZM7498.31,4169.49C7958.55,4169.49 8332.2,4543.14 8332.2,5003.38C8332.2,5463.62 7958.55,5837.28 7498.31,5837.28C7038.07,5837.28 6664.41,5463.62 6664.41,5003.38C6664.41,4543.14 7038.07,4169.49 7498.31,4169.49ZM3023.6,3253.8C2793.47,2855.22 2930.24,2344.8 3328.82,2114.68C3727.4,1884.56 4237.83,2021.33 4467.95,2419.91C4698.07,2818.49 4561.3,3328.91 4162.72,3559.03C3764.14,3789.15 3253.72,3652.38 3023.6,3253.8Z" style="fill:rgb(255,128,0);"/>
    </g>
    <g id="F.Mask">
        <path id="use14" d="M4467.95,7586.86C4237.83,7985.44 3727.4,8122.21 3328.82,7892.09C2930.24,7661.97 2793.47,7151.54 3023.6,6752.96C3253.72,6354.38 3764.14,6217.61 4162.72,6447.74C4561.3,6677.86 4698.07,7188.28 4467.95,7586.86Z" style="fill:rgb(0,255,220);stroke:rgb(0,255,220);stroke-width:113.15px;"/>
        <ellipse id="use18" cx="7498.31" cy="5003.38" rx="833.897" ry="833.897" style="fill:rgb(0,255,220);stroke:rgb(0,255,220);stroke-width:113.15px;"/>
        <path id="path21" serif:id="path2" d="M4996.62,5003.38C6185.14,4317.19 6598.49,2774.53 5912.3,1586.01C5226.11,397.488 3683.45,-15.866 2494.93,670.327C2494.93,670.328 2494.93,670.328 2494.93,670.328C117.881,2042.72 -708.827,5128.03 663.56,7505.07C1102.67,8265.63 1734.37,8897.33 2494.93,9336.44C2114.65,9116.89 1798.8,8801.03 1579.24,8420.76C893.049,7232.24 1306.4,5689.58 2494.93,5003.38C3267.99,4557.05 4223.55,4557.05 4996.62,5003.38" style="fill:rgb(0,255,0);fill-rule:nonzero;stroke:rgb(0,204,0);stroke-width:3.21px;"/>
    </g>
</svg>
